<svg xmlns="http://www.w3.org/2000/svg" width="50" height="50" viewBox="0 0 50 50">
    <g fill="none">
        <g>
            <path fill="#FFF" d="M.049 4.733v30.942c0 .758.6 1.372 1.34 1.372H40.87c.74 0 1.34-.615 1.34-1.372V4.733c0-.757-.6-1.371-1.34-1.371H1.388c-.74 0-1.34.614-1.34 1.371z" transform="translate(.684 .8)"/>
            <path fill="#FFF" d="M40.871 3.362h-2.425c.74 0 1.34.614 1.34 1.371v30.942c0 .758-.6 1.372-1.34 1.372h2.425c.74 0 1.34-.614 1.34-1.372V4.733c0-.757-.6-1.371-1.34-1.371z" transform="translate(.684 .8)"/>
            <g fill="#FFF" transform="translate(.684 .8) translate(9.277 7.6)">
                <ellipse cx="1.769" cy="11.423" rx="1.709" ry="1.75"/>
                <ellipse cx="8.491" cy="7.515" rx="1.709" ry="1.75"/>
                <ellipse cx="15.214" cy="11.423" rx="1.709" ry="1.75"/>
                <ellipse cx="21.936" cy="1.806" rx="1.709" ry="1.75"/>
            </g>
            <path fill="#FFF" d="M7.17 39.447v-2.4H35.09v2.4c0 .528-.418.955-.933.955H8.104c-.516 0-.933-.427-.933-.955z" transform="translate(.684 .8)"/>
            <path fill="#FFF" d="M32.72 37.047v2.4c0 .528-.417.955-.932.955h2.368c.515 0 .933-.427.933-.955v-2.4H32.72z" transform="translate(.684 .8)"/>
            <path fill="#3482FD" d="M17.797 3.362V1.137c0-.625.495-1.131 1.105-1.131h4.455c.61 0 1.105.506 1.105 1.131v2.224h-6.665z" transform="translate(.684 .8)"/>
            <path fill="#3482FD" d="M23.357.006h-2.385c.61 0 1.105.506 1.105 1.131v2.225h2.385V1.138c0-.626-.494-1.132-1.105-1.132zM9.561 26.108H12.532V32.735H9.561zM16.283 22.275H19.254V32.735H16.283zM23.005 26.108H25.976V32.735H23.005zM29.727 19.286H32.698V32.735H29.727z" transform="translate(.684 .8)"/>
            <g transform="translate(.684 .8) translate(28.906 13.7)">
                <path fill="#3482FD" d="M10.396 16.107l5.452 9.67c.567 1.006 1.822 1.35 2.803.77.982-.58 1.318-1.866.751-2.87l-5.452-9.67-3.554 2.1z"/>
                <path fill="#3482FD" d="M13.95 14.006l-3.554 2.101 2.125 3.77c.639-.23 1.265-.523 1.872-.882.608-.36 1.169-.769 1.682-1.22l-2.125-3.769z"/>
                <ellipse cx="8.842" cy="9.148" fill="#FFF" rx="8.841" ry="9.053"/>
                <ellipse cx="8.842" cy="9.148" fill="#3482FD" rx="6.222" ry="6.371"/>
            </g>
        </g>
        <g fill="#0149B8">
            <path d="M31.897 12.706c1.346 0 2.441-1.121 2.441-2.5 0-1.378-1.095-2.5-2.441-2.5-1.346 0-2.442 1.122-2.442 2.5 0 .563.183 1.083.491 1.502l-4.011 5.74c-.24-.08-.495-.125-.76-.125-.642 0-1.226.255-1.662.67l-2.674-1.553c.036-.17.055-.345.055-.525 0-1.379-1.095-2.5-2.442-2.5-1.346 0-2.441 1.121-2.441 2.5 0 .18.02.356.055.525l-2.674 1.554c-.436-.416-1.02-.67-1.662-.67-1.346 0-2.441 1.12-2.441 2.5 0 1.378 1.095 2.5 2.441 2.5 1.346 0 2.442-1.122 2.442-2.5 0-.181-.02-.357-.055-.527l2.674-1.553c.436.416 1.02.67 1.661.67.642 0 1.226-.254 1.662-.67l2.674 1.554c-.036.17-.055.345-.055.525 0 1.379 1.095 2.5 2.442 2.5 1.346 0 2.441-1.121 2.441-2.5 0-.563-.183-1.083-.49-1.501l4.01-5.74c.24.08.495.124.76.124zm0-3.5c.538 0 .976.449.976 1 0 .552-.438 1-.976 1-.539 0-.977-.448-.977-1 0-.551.438-1 .977-1zM11.73 20.823c-.538 0-.977-.448-.977-1s.439-1 .977-1 .977.448.977 1-.439 1-.977 1zm6.722-3.908c-.538 0-.976-.449-.976-1 0-.552.438-1 .976-1 .539 0 .977.448.977 1 0 .551-.438 1-.977 1zm6.723 3.908c-.539 0-.977-.448-.977-1s.438-1 .977-1c.538 0 .976.448.976 1s-.438 1-.976 1z"/>
            <path d="M40.898 37.096H2.072c-.335 0-.607-.278-.607-.621V5.533c0-.343.272-.621.607-.621h3.453c.404 0 .732-.336.732-.75 0-.415-.328-.75-.732-.75H2.072C.929 3.412 0 4.363 0 5.533v30.942c0 1.17.93 2.121 2.072 2.121h5.05v1.651c0 .94.747 1.705 1.665 1.705h7.332l-3.452 6.9c-.184.369-.042.82.318 1.01.107.056.221.082.334.082.266 0 .523-.149.652-.408l3.793-7.584h8.098l3.794 7.584c.13.26.386.408.652.408.112 0 .226-.026.333-.082.36-.19.503-.641.318-1.01l-3.45-6.9h7.33c.919 0 1.666-.764 1.666-1.705v-1.65h4.393c.405 0 .732-.336.732-.75 0-.415-.327-.75-.732-.75zm-5.858 3.151c0 .113-.09.205-.2.205H8.787c-.11 0-.2-.092-.2-.205v-1.65H35.04v1.65zM8.454 4.912h33.101c.335 0 .607.278.607.621v7.131c0 .415.328.75.732.75.405 0 .733-.335.733-.75v-7.13c0-1.17-.93-2.122-2.072-2.122H25.878V1.937c0-1.037-.824-1.881-1.837-1.881h-4.455c-1.013 0-1.838.844-1.838 1.881v1.475H8.454c-.404 0-.732.335-.732.75 0 .414.328.75.732.75zm10.76-2.975c0-.21.166-.381.372-.381h4.455c.205 0 .373.171.373.381v1.475h-5.2V1.937z"/>
            <path d="M10.244 26.158c-.404 0-.732.335-.732.75v6.627c0 .414.328.75.732.75h2.972c.404 0 .732-.336.732-.75v-6.627c0-.415-.328-.75-.732-.75h-2.972zm2.24 6.627h-1.507v-5.127h1.506v5.127zM16.967 22.325c-.405 0-.733.335-.733.75v10.46c0 .414.328.75.733.75h2.97c.405 0 .733-.336.733-.75v-10.46c0-.415-.328-.75-.732-.75h-2.971zm2.239 10.46h-1.507v-8.96h1.507v8.96zM23.689 26.158c-.405 0-.733.335-.733.75v6.627c0 .414.328.75.733.75h2.971c.405 0 .733-.336.733-.75v-6.627c0-.415-.328-.75-.733-.75H23.69zm2.239 6.627H24.42v-5.127h1.507v5.127zM30.411 30.583c-.404 0-.732.336-.732.75v2.202c0 .414.328.75.732.75h2.971c.405 0 .733-.336.733-.75s-.328-.75-.733-.75h-2.239v-1.452c0-.414-.327-.75-.732-.75zM49.626 37.802l-4.201-7.453c1.064-1.162 1.84-2.581 2.253-4.164.662-2.529.323-5.17-.956-7.438-2.64-4.681-8.505-6.29-13.077-3.588-4.571 2.702-6.143 8.71-3.504 13.39 1.279 2.268 3.343 3.89 5.813 4.568.825.226 1.662.338 2.493.338.727 0 1.45-.085 2.156-.255l4.201 7.453c.515.914 1.453 1.425 2.416 1.425.472 0 .95-.123 1.387-.382.86-.507 1.393-1.454 1.393-2.47 0-.498-.13-.99-.374-1.424zm-13.293-6.134c-2.092-.574-3.84-1.948-4.923-3.869-2.236-3.964-.904-9.052 2.968-11.341 1.273-.753 2.665-1.11 4.04-1.11 2.804 0 5.535 1.489 7.035 4.149 1.083 1.92 1.37 4.158.81 6.3-.56 2.142-1.902 3.933-3.777 5.041-1.876 1.11-4.06 1.404-6.153.83zm11.542 8.73c-.63.372-1.439.15-1.802-.495l-4.042-7.17c.405-.17.802-.368 1.187-.595.386-.228.751-.482 1.097-.757l4.043 7.17c.116.207.177.44.177.675 0 .482-.253.93-.66 1.171z"/>
            <path d="M45.072 25.761c.518-1.706.394-3.531-.346-5.142-.173-.374-.61-.535-.975-.358-.366.176-.523.623-.35.998.584 1.27.68 2.71.273 4.057-.411 1.354-1.298 2.49-2.498 3.2-1.27.75-2.749.95-4.165.561-1.416-.388-2.6-1.318-3.333-2.619-1.513-2.684-.612-6.128 2.01-7.678 1.916-1.133 4.294-.981 6.059.386.322.25.782.185 1.026-.146.244-.33.18-.8-.142-1.05-2.236-1.732-5.249-1.924-7.676-.489-1.609.951-2.76 2.487-3.24 4.324-.481 1.837-.234 3.756.694 5.403.929 1.648 2.429 2.826 4.223 3.318.599.165 1.207.246 1.81.246 1.206 0 2.395-.324 3.466-.957 1.52-.899 2.644-2.338 3.164-4.054z"/>
        </g>
    </g>
</svg>
