<svg xmlns="http://www.w3.org/2000/svg" width="43" height="43" viewBox="0 0 43 43">
    <g fill="none">
        <path fill="#3482FD" d="M9.71 12.484L9.71 19.419 12.484 19.419 12.484 22.194 16.645 22.194 16.645 19.419 16.645 12.484zM24.968 13.871L20.806 13.871 20.806 8.323 24.968 8.323zM24.968 20.806L20.806 20.806 20.806 15.258 24.968 15.258zM24.968 27.742L20.806 27.742 20.806 22.194 24.968 22.194zM24.968 34.677L20.806 34.677 20.806 29.129 24.968 29.129zM30.516 13.871L26.355 13.871 26.355 8.323 30.516 8.323z"/>
        <g fill="#0149B8">
            <path d="M41.613 41.613V20.806h-1.387v-2.774h-1.387v-4.161h-1.387v-2.774h-1.387v2.774h-1.388v4.161H33.29V2.622l-4.161.832V1.387h-1.387v2.344l-1.387.278V0h-1.387v4.286l-1.387.278V1.387h-1.387v3.455l-4.162.832V9.71H5.548v1.387h1.387v8.385c-.227-.037-.457-.063-.693-.063-2.676 0-4.855 2.49-4.855 5.549 0 2.79 1.813 5.098 4.161 5.485v.904c-.58-.525-1.3-.84-2.08-.84-1.912 0-3.468 1.865-3.468 4.16 0 2.01 1.194 3.69 2.774 4.078v2.858H0V43h43v-1.387h-1.387zm-30.516-.694c0-1.147.933-2.08 2.08-2.08.75 0 1.444.405 1.814 1.059l.215.38.746-.052c.204 0 .419.04.657.12l.674.226.21-.68c.452-1.459 1.783-2.44 3.313-2.44 1.261 0 2.425.687 3.037 1.794l.434.785.65-.617c.782-.741 2.073-.741 2.854 0l.651.617.433-.785c.614-1.107 1.777-1.794 3.038-1.794 1.506 0 2.83.962 3.297 2.395l.195.599.615-.136c1.374-.305 2.718.26 3.508 1.303H11.23c-.079-.223-.134-.454-.134-.694zm29.129-18.725V40.32c-.402-.412-.87-.751-1.387-1v-15.74h-9.71v13.364c-.389.272-.743.595-1.042.974-.11-.064-.227-.12-.345-.17V22.194h12.484zm-8.323 13.87c-.477 0-.942.078-1.387.211V24.968h2.774v11.298c-.441-.131-.908-.201-1.387-.201zm2.774-11.096h2.775v13.936c-.377-.055-.76-.081-1.152-.043-.367-.786-.935-1.436-1.623-1.917V24.968zm-5.548-4.162V19.42h9.71v1.387h-9.71zm6.936-5.548h1.387v2.774h-1.387v-2.774zM31.903 4.314v13.718h-4.161v2.774h-1.387v16.656c-.605 0-1.209.153-1.733.457-.912-1.159-2.314-1.854-3.816-1.854-.48 0-.946.069-1.387.199V6.81l12.484-2.496zm-23.58 6.783h9.71v25.842c-.694.483-1.264 1.14-1.631 1.934-.147-.02-.295-.03-.449-.032-.65-.866-1.678-1.39-2.776-1.39-1.912 0-3.467 1.556-3.467 3.468 0 .235.03.466.077.694H6.935v-2.518l4.162-4.855v-1.706c2.348-.387 4.161-2.696 4.161-5.486 0-2.087-1.015-3.908-2.51-4.854h1.123v-1.388h-1.387v1.237c-.632-.345-1.336-.543-2.08-.543-.12 0-.242.008-.366.02-.458-.659-1.045-1.192-1.715-1.558v-8.865zm2.774 13.87c0-.727-.127-1.422-.351-2.06 1.752.208 3.125 1.986 3.125 4.141 0 2.295-1.556 4.162-3.468 4.162-.875 0-1.707-.403-2.341-1.102 1.777-.825 3.035-2.817 3.035-5.14zM6.935 30.92c.745.873 1.715 1.443 2.775 1.617v1.192l-2.775 3.237v-6.046zm-4.16-5.951c0-2.295 1.555-4.162 3.467-4.162 1.912 0 3.468 1.867 3.468 4.162 0 2.01-1.194 3.69-2.775 4.077v-4.77H5.548v4.77c-1.58-.387-2.774-2.067-2.774-4.077zm-1.388 9.71c0-1.53.934-2.775 2.08-2.775 1.148 0 2.081 1.244 2.081 2.774s-.933 2.775-2.08 2.775-2.08-1.245-2.08-2.775zm2.774 4.077c.514-.126.984-.391 1.387-.756v3.614H4.161v-2.858z"/>
            <path d="M15.258 12.484L16.645 12.484 16.645 13.871 15.258 13.871zM12.484 12.484L13.871 12.484 13.871 13.871 12.484 13.871zM9.71 12.484L11.097 12.484 11.097 13.871 9.71 13.871zM12.484 15.258L13.871 15.258 13.871 16.645 12.484 16.645zM9.71 15.258L11.097 15.258 11.097 16.645 9.71 16.645zM15.258 15.258L16.645 15.258 16.645 16.645 15.258 16.645zM15.258 18.032L16.645 18.032 16.645 19.419 15.258 19.419zM9.71 18.032L11.097 18.032 11.097 19.419 9.71 19.419zM12.484 18.032L13.871 18.032 13.871 19.419 12.484 19.419zM15.258 20.806L16.645 20.806 16.645 22.194 15.258 22.194z"/>
        </g>
    </g>
</svg>
