<svg xmlns="http://www.w3.org/2000/svg" width="48" height="50" viewBox="0 0 48 50">
    <g fill="none">
        <path fill="#FFF" d="M46.683 49.269H1.173c-.279 0-.468-.285-.36-.542 3.792-8.996 12.714-15.314 23.116-15.314 10.401 0 19.323 6.318 23.115 15.314.109.257-.081.542-.36.542z"/>
        <path fill="#FFF" d="M47.044 48.727C43.252 39.73 34.33 33.413 23.93 33.413c-.51 0-1.014.015-1.516.045 9.747.58 17.994 6.712 21.6 15.27.11.256-.08.541-.36.541h3.03c.28 0 .47-.285.361-.542z"/>
        <path fill="#FFF" d="M37.874 14.732C37.874 7.09 31.689.887 24.038.83 16.452.77 10.161 6.844 9.988 14.406c-.14 6.074 3.629 11.29 8.974 13.32.436.166.78.51.955.942l2.867 7.058c.416 1.025 1.873 1.025 2.29 0l2.867-7.059c.175-.433.522-.776.96-.943 5.247-1.996 8.973-7.06 8.973-12.992z"/>
        <path fill="#FFF" d="M24.038.829c-.412-.003-.82.013-1.224.045 7.172.575 12.813 6.56 12.813 13.858 0 5.932-3.727 10.996-8.973 12.992-.438.167-.785.51-.96.943l-2.868 7.059-.02.047c.44.977 1.857.962 2.267-.047l2.868-7.059c.175-.433.522-.776.96-.943 5.247-1.996 8.973-7.06 8.973-12.992C37.874 7.09 31.689.887 24.038.83z"/>
        <path fill="#FFF" d="M17.21 9.86v12.2c0 .358.29.649.65.649h12.137c.36 0 .651-.291.651-.65V9.86H17.21z"/>
        <path fill="#3482FD" d="M26.47 9.86v2.043c0 1.4 1.137 2.533 2.54 2.533 1.404 0 2.541-1.134 2.541-2.533V9.86H26.47zM16.306 9.86v2.043c0 1.4 1.138 2.533 2.541 2.533s2.541-1.134 2.541-2.533V9.86h-5.082z"/>
        <path fill="#FFF" d="M21.388 9.86v2.043c0 1.4 1.137 2.533 2.54 2.533 1.404 0 2.542-1.134 2.542-2.533V9.86h-5.082z"/>
        <path fill="#3482FD" d="M18.282 6.288L16.306 9.86h15.245l-1.976-3.572c-.16-.289-.464-.467-.794-.467h-9.705c-.33 0-.635.178-.794.467z"/>
        <path fill="#FFF" d="M26.469 9.86L21.388 9.86 22.132 5.82 25.725 5.82z"/>
        <path fill="#3482FD" d="M21.682 16.822v5.887h4.494v-5.887c0-.097-.08-.176-.177-.176h-4.141c-.098 0-.176.08-.176.176z"/>
        <path fill="#FFF" d="M41.462 21.76c-3.182-.025-5.82 2.522-5.894 5.694-.058 2.548 1.523 4.735 3.765 5.587.183.07.327.214.4.395l1.203 2.96c.175.43.786.43.96 0l1.203-2.96c.073-.182.22-.326.403-.396 2.2-.837 3.763-2.961 3.763-5.45 0-3.204-2.594-5.806-5.803-5.83zm-.046 7.524c-.937 0-1.696-.758-1.696-1.691 0-.934.76-1.691 1.696-1.691.937 0 1.696.757 1.696 1.69 0 .934-.76 1.692-1.696 1.692z"/>
        <path fill="#3482FD" d="M6.821 31.924C3.639 31.9 1.001 34.447.928 37.62c-.059 2.548 1.522 4.735 3.764 5.587.183.07.327.214.4.394l1.203 2.96c.175.431.785.431.96 0l1.203-2.96c.073-.181.219-.325.403-.395 2.2-.838 3.763-2.961 3.763-5.45 0-3.205-2.594-5.806-5.803-5.83zm-.046 7.524c-.937 0-1.696-.757-1.696-1.69 0-.935.76-1.691 1.696-1.691.937 0 1.696.756 1.696 1.69 0 .934-.76 1.691-1.696 1.691z"/>
        <path fill="#0149B8" d="M39.186 37.66c-3.58-2.622-7.765-4.27-12.16-4.795l1.594-3.923c.1-.247.298-.441.543-.535 2.748-1.046 5.097-2.873 6.792-5.283 1.735-2.467 2.652-5.369 2.652-8.392 0-3.889-1.513-7.55-4.261-10.31C31.599 1.663 27.94.128 24.044.098c-3.605-.03-7.089 1.274-9.809 3.664-.303.267-.333.73-.064 1.032.267.303.73.332 1.034.065 2.449-2.152 5.583-3.326 8.827-3.3 3.508.028 6.8 1.41 9.273 3.893 2.474 2.484 3.836 5.78 3.836 9.28 0 2.721-.825 5.333-2.386 7.552-1.527 2.17-3.641 3.816-6.115 4.758-.624.237-1.127.73-1.38 1.351L25.187 33.5l-.008.02-.002.006-.782 1.925c-.115.283-.363.313-.465.313-.102 0-.351-.03-.466-.313l-.9-2.218-.012-.028-1.954-4.812c-.253-.622-.753-1.114-1.373-1.35-5.215-1.98-8.632-7.053-8.504-12.62.063-2.722.96-5.32 2.593-7.513.242-.324.174-.782-.151-1.022-.325-.241-.785-.174-1.026.15-1.816 2.438-2.813 5.326-2.882 8.351-.142 6.185 3.654 11.819 9.447 14.02.24.093.436.286.537.533l1.593 3.923c-2.044.244-4.05.731-5.978 1.454-.379.142-.57.563-.428.941.11.293.39.474.686.474.086 0 .173-.015.258-.047 1.308-.49 2.655-.865 4.027-1.123-1.786 1.559-3.348 4.03-4.57 7.2H11.98c.872-1.129 1.379-2.533 1.379-4.008 0-3.591-2.93-6.535-6.531-6.562h-.051c-3.553 0-6.5 2.864-6.581 6.408-.064 2.768 1.632 5.29 4.221 6.282l1.2 2.951c.192.474.647.78 1.16.78.511 0 .966-.306 1.159-.78l1.199-2.951c.454-.174.88-.396 1.276-.659h3.893c-.538 1.624-.993 3.403-1.352 5.313H1.694c.425-.95.916-1.882 1.463-2.774.211-.344.102-.794-.243-1.005-.346-.21-.797-.102-1.008.243-.676 1.102-1.27 2.26-1.77 3.444-.146.347-.107.742.102 1.054.21.313.56.5.936.5h45.51c.377 0 .727-.187.936-.501.209-.314.246-.708.1-1.055-1.808-4.29-4.759-8.019-8.534-10.784zM8.599 42.522c-.372.141-.67.435-.821.804l-1.003 2.47-1.003-2.47c-.15-.37-.449-.663-.819-.803-2.019-.768-3.342-2.731-3.292-4.887.063-2.755 2.354-4.98 5.115-4.98h.04c2.798.02 5.075 2.309 5.075 5.1 0 2.101-1.323 4.017-3.292 4.766zm13.009-7.744L22.104 36c.303.745 1.019 1.226 1.825 1.226.805 0 1.521-.481 1.824-1.226l.496-1.22c1.163.646 2.297 1.784 3.312 3.331.14.215.375.332.614.332.138 0 .277-.04.4-.12.34-.22.435-.674.213-1.012-.73-1.112-1.506-2.03-2.325-2.746 3.553.668 6.92 2.123 9.855 4.273 1.197.877 2.306 1.857 3.317 2.925H33.02c-.242-.628-.498-1.23-.767-1.802-.171-.366-.608-.523-.975-.352-.366.171-.524.606-.353.972.179.38.352.775.518 1.182H16.41c1.398-3.418 3.205-5.885 5.199-6.985zm-7.164 13.76c.373-1.92.85-3.702 1.413-5.313h16.14c.569 1.629 1.047 3.421 1.417 5.313h-18.97zm20.462 0c-.354-1.877-.813-3.667-1.36-5.313h9.365c1.305 1.62 2.4 3.405 3.252 5.313H34.906z"/>
        <path fill="#0149B8" d="M17.861 23.44h12.136c.763 0 1.384-.62 1.384-1.38v-7.908c.56-.586.903-1.378.903-2.249V9.86v-.007-.008-.02-.001c-.007-.12-.041-.232-.098-.33l-1.969-3.56c-.288-.52-.839-.844-1.436-.844h-9.704c-.598 0-1.148.324-1.437.845l-1.969 3.56c-.06.103-.095.223-.098.35V11.904c0 .872.344 1.664.904 2.25v7.907c0 .76.62 1.38 1.384 1.38zM25.114 6.55l.475 2.578h-3.32l.474-2.578h2.371zm5.704 5.352c0 .994-.811 1.802-1.808 1.802s-1.807-.808-1.807-1.802v-1.312h3.615v1.312zm-8.697-1.312h3.615v1.312c0 .994-.81 1.802-1.807 1.802-.997 0-1.808-.808-1.808-1.802v-1.312zm-1.466 0v1.312c0 .994-.811 1.802-1.808 1.802s-1.808-.808-1.808-1.802v-1.312h3.616zm4.788 11.387h-3.028v-4.6h3.028v4.6zm1.466 0v-5.156c0-.5-.408-.907-.91-.907h-4.141c-.502 0-.91.407-.91.907v5.156h-3.005V15.04c.287.082.59.126.904.126 1.024 0 1.94-.471 2.541-1.207.6.736 1.516 1.207 2.54 1.207 1.025 0 1.94-.471 2.542-1.207.6.736 1.516 1.207 2.54 1.207.314 0 .617-.044.905-.126v6.937h-3.006zM28.933 6.64l1.377 2.488h-3.23l-.475-2.577h2.176c.063 0 .121.033.152.089zm-10.009 0c.03-.056.09-.09.152-.09h2.176l-.475 2.578h-3.23l1.377-2.488zM41.416 30.015c1.34 0 2.43-1.087 2.43-2.422 0-1.336-1.09-2.422-2.43-2.422s-2.43 1.086-2.43 2.422c0 1.335 1.09 2.422 2.43 2.422zm0-3.382c.53 0 .963.43.963.96 0 .529-.432.96-.963.96-.531 0-.963-.431-.963-.96 0-.53.432-.96.963-.96z"/>
        <path fill="#0149B8" d="M37.51 23.198c.23.332.686.417 1.02.188.867-.594 1.88-.903 2.927-.895 2.798.021 5.075 2.31 5.075 5.1 0 2.101-1.323 4.017-3.291 4.766-.372.141-.672.435-.822.804l-1.003 2.47-1.003-2.47c-.15-.37-.449-.662-.819-.803-2.019-.767-3.342-2.731-3.292-4.887.017-.743.192-1.457.52-2.121.18-.363.031-.8-.332-.98-.363-.178-.803-.03-.982.333-.424.857-.65 1.777-.672 2.734-.064 2.768 1.632 5.29 4.222 6.282l1.198 2.951c.193.474.648.78 1.16.78.512 0 .968-.306 1.16-.78l1.199-2.951c2.527-.968 4.223-3.429 4.223-6.128 0-3.591-2.93-6.535-6.53-6.562-1.351-.008-2.653.388-3.769 1.152-.333.229-.418.684-.189 1.017zM6.775 35.336c-1.34 0-2.43 1.086-2.43 2.421 0 1.336 1.09 2.422 2.43 2.422s2.43-1.086 2.43-2.422c0-1.335-1.09-2.421-2.43-2.421zm0 3.381c-.531 0-.963-.43-.963-.96 0-.529.432-.96.963-.96.531 0 .963.431.963.96 0 .53-.432.96-.963.96z"/>
    </g>
</svg>
